<svg width="71" height="88" viewBox="0 0 71 88" fill="none" xmlns="http://www.w3.org/2000/svg">
<path d="M52.2591 24.2859L52.2591 24.2859C52.4809 25.4463 52.4084 26.4104 51.7983 27.4887C51.2146 28.5205 50.1475 29.6384 48.4734 31.1688L48.136 30.7998L48.4733 31.1688C47.3063 32.2356 46.4255 33.1202 45.8033 33.887C45.1784 34.6571 44.843 35.2743 44.7218 35.8049C44.4981 36.7839 44.9664 37.6851 46.4998 39.031L46.5 39.0312C46.7653 39.2643 46.9952 39.4657 47.1936 39.6368C47.1883 39.6223 47.1829 39.6076 47.1775 39.5927L47.1775 39.5926C46.7396 38.3959 46.9603 37.0762 47.7704 35.5347C48.5773 33.9993 50.0034 32.1754 52.0963 29.9169L52.0963 29.9169C52.8459 29.1081 53.3984 28.4388 53.7738 27.8579C54.1493 27.2766 54.3277 26.8136 54.3669 26.4144C54.4411 25.6572 54.0284 24.9165 52.7965 23.8015L52.2591 24.2859ZM52.2591 24.2859C52.168 23.8092 52.0992 23.4356 52.0572 23.1489M52.2591 24.2859L52.0572 23.1489M1.13495 50.432L1.13496 50.4321C2.64457 56.4477 6.54206 64.9713 9.94603 69.708L9.94614 69.7081C11.9628 72.5166 14.4544 76.7715 15.4905 79.1867L15.4906 79.1868C16.6172 81.8157 18.0335 83.5595 20.2342 84.7552C22.4621 85.9657 25.538 86.6394 30.0388 87.0165C33.7519 87.3279 37.559 87.1134 40.7865 86.5018C44.0374 85.8857 46.6171 84.8823 47.9509 83.6777L47.951 83.6776C48.3892 83.2822 49.0093 82.4708 49.6564 81.4489C50.2963 80.4385 50.9371 79.2629 51.4232 78.1705C52.435 75.8943 55.1394 71.3744 57.4339 68.1084L57.4339 68.1083C58.5695 66.4923 59.6003 64.8763 60.345 63.5774C60.7178 62.9273 61.0151 62.3633 61.2175 61.9222C61.3189 61.7013 61.3932 61.5185 61.4411 61.3756C61.465 61.3044 61.4807 61.248 61.49 61.2053C61.4984 61.1672 61.4997 61.1488 61.5 61.1459C61.5 61.1454 61.5 61.1453 61.5 61.1458C61.5 60.5914 61.6225 60.1013 61.9217 59.7626C62.2448 59.397 62.6963 59.2938 63.1366 59.383C63.5556 59.4678 63.97 59.7223 64.344 60.075C64.7233 60.4327 65.0881 60.9165 65.4058 61.5098L65.4059 61.5099C66.2349 63.0592 66.5506 65.2383 66.4389 67.3351C66.3274 69.4307 65.7834 71.5471 64.7925 72.9617M1.13495 50.432L51.88 78.3738C52.873 76.1398 55.557 71.6498 57.843 68.3958C60.129 65.1428 62 61.8798 62 61.1458C62 59.1688 63.778 59.5288 64.965 61.7458C66.506 64.6258 66.217 70.0568 64.383 72.6748C63.494 73.9448 61.357 75.8428 59.633 76.8938M1.13495 50.432C0.936066 49.64 0.815124 49.0874 0.788123 48.716C0.778459 48.583 0.783093 48.4974 0.790883 48.4456M1.13495 50.432L60.505 49.9778C63.527 48.9568 65.997 48.3898 65.994 48.7168C65.991 49.0438 65.535 50.9448 64.981 52.9418M64.7925 72.9617L64.3855 72.6765L64.7926 72.9615C64.7926 72.9616 64.7926 72.9616 64.7925 72.9617ZM64.7925 72.9617C63.8538 74.3025 61.6591 76.2442 59.8933 77.3207M59.8933 77.3207L59.8934 77.3206L59.633 76.8938M59.8933 77.3207L58.2778 78.3061M59.8933 77.3207L59.633 76.8938M59.633 76.8938L57.3187 78.3054L58.2778 78.3061M64.981 52.9418L64.4993 52.8079C64.4992 52.808 64.4992 52.808 64.4992 52.8081M64.981 52.9418L64.4992 52.8081M64.981 52.9418C64.059 56.2588 64.225 56.8418 66.913 59.7188C71.989 65.1518 72.089 70.8408 67.201 76.0618M64.4992 52.8081C64.7749 51.8143 65.0259 50.8456 65.2079 50.0864C65.297 49.715 65.3689 49.3966 65.419 49.1513M64.4992 52.8081C64.0432 54.4487 63.806 55.5575 64.1124 56.6323C64.4137 57.6892 65.2221 58.6414 66.5476 60.0601C69.0294 62.7164 70.2479 65.3841 70.2936 67.9786C70.3392 70.5694 69.2169 73.177 66.836 75.7201M65.419 49.1513C65.4873 49.142 65.5491 49.1351 65.604 49.1306C65.6629 49.1257 65.7089 49.1239 65.7433 49.1242C65.7795 49.1245 65.7929 49.127 65.7903 49.1265C65.7883 49.1262 65.7766 49.1239 65.7586 49.1173C65.7413 49.1109 65.7092 49.0972 65.6722 49.0703C65.5834 49.0058 65.4925 48.8803 65.494 48.7122C65.4941 48.7082 65.4941 48.7158 65.4913 48.7403C65.4888 48.7629 65.4847 48.7932 65.4785 48.8319C65.4662 48.9094 65.4475 49.0107 65.4223 49.1346C65.4212 49.1401 65.4201 49.1457 65.419 49.1513ZM65.419 49.1513C65.1857 49.1829 64.8753 49.2419 64.4958 49.3291C63.5221 49.5527 62.1659 49.9444 60.665 50.4515L60.6649 50.4515C53.4 52.9037 41.7499 54.0013 30.6468 53.8425C25.0877 53.763 19.648 53.3683 14.9418 52.6655C10.2466 51.9643 6.24097 50.9508 3.57579 49.6137C2.64766 49.1481 1.96103 48.8182 1.45799 48.6264C1.20649 48.5306 1.02199 48.4776 0.889532 48.4562C0.846818 48.4492 0.814508 48.4464 0.790883 48.4456M0.790883 48.4456C0.794012 48.4248 0.79765 48.4095 0.801074 48.3988C0.802681 48.3937 0.80253 48.3939 0.800222 48.3973C0.794824 48.4051 0.777625 48.4301 0.743513 48.4451C0.739301 48.447 0.736989 48.4477 0.737013 48.4478C0.737075 48.448 0.752557 48.4442 0.790883 48.4456ZM66.836 75.7201C66.836 75.72 66.836 75.72 66.8361 75.72L67.201 76.0618M66.836 75.7201L67.201 76.0618M66.836 75.7201C65.8651 76.7567 65.0487 77.3887 64.1225 77.7719C63.1926 78.1566 62.1066 78.3093 60.5635 78.3078L58.2778 78.3061M67.201 76.0618C65.208 78.1898 63.707 78.8108 60.563 78.8078L57.459 78.8055L58.2778 78.3061M52.0572 23.1489C52.252 23.3119 52.4945 23.5283 52.7965 23.8015L52.0572 23.1489ZM48.2946 44.935C40.7176 46.0338 31.2198 46.2995 22.4195 45.3519C16.4114 44.7053 12.3021 44.0795 9.387 43.2637C6.4601 42.4445 4.68984 41.4213 3.40203 39.9524C2.5436 38.9733 1.76422 38.712 1.30526 38.7998C0.926067 38.8723 0.5 39.2575 0.5 40.3448C0.5 40.6758 0.679904 41.0749 1.20876 41.5425C1.73675 42.0094 2.55896 42.4945 3.70503 42.9878C5.99339 43.9726 9.45484 44.9408 14.1063 45.8837C14.1063 45.8837 14.1063 45.8838 14.1063 45.8838L14.007 46.3738L48.2946 44.935ZM48.2946 44.935C52.0818 44.3858 55.4072 43.6259 57.9329 42.6964M48.2946 44.935L57.9329 42.6964M57.9329 42.6964C59.1953 42.2318 60.2731 41.7194 61.1128 41.16M57.9329 42.6964L61.1128 41.16M61.1128 41.16C61.9465 40.6045 62.5855 39.9764 62.9099 39.2642L61.1128 41.16ZM29.5427 4.02274L29.5425 4.02256C28.9656 3.04544 28.4426 2.09853 28.0652 1.36212C27.9393 1.11647 27.8309 0.89659 27.7425 0.708351C27.7689 0.721142 27.7962 0.734596 27.8243 0.74874C28.4313 1.05367 29.2795 1.58995 30.1987 2.24322C32.0482 3.5576 34.0687 5.26211 34.9009 6.3573L34.901 6.35746C35.4991 7.14378 35.8355 7.88742 35.9199 8.67442C36.0044 9.46295 35.8416 10.348 35.3492 11.4256C34.3524 13.607 32.069 16.4467 28.1153 20.6377L28.1153 20.6377C24.5834 24.3819 22.4529 27.0163 21.4263 29.3966C20.3776 31.8282 20.4935 33.9596 21.314 36.6325L21.9837 38.8144L20.4414 37.8534C16.0199 35.0979 14.243 32.4025 14.6989 29.4224C14.9325 27.8949 15.7575 26.221 17.2426 24.351C18.7261 22.4832 20.8455 20.4481 23.6226 18.2004L23.6226 18.2004C27.3129 15.2134 29.5591 12.9451 30.49 10.7741C31.4545 8.52494 30.9815 6.46183 29.5427 4.02274ZM27.1799 0.499742C27.1798 0.499597 27.1822 0.499546 27.1873 0.500024C27.1826 0.500126 27.1801 0.499887 27.1799 0.499742ZM37.3439 25.2435L37.004 24.8768L37.3439 25.2435C38.9487 23.7561 40.2044 22.5235 41.1372 21.4454C42.0682 20.3693 42.7024 19.4194 43.0351 18.4938C43.7257 16.5729 43.0621 14.922 41.6685 12.7911C41.4112 12.3977 41.2243 12.081 41.0961 11.8347C41.3126 11.9682 41.5847 12.1551 41.9154 12.4044C42.5714 12.899 43.408 13.5996 44.4155 14.5064C45.2725 15.2781 45.831 15.9901 46.1242 16.7058C46.4118 17.4078 46.4588 18.1489 46.2283 19.0158C45.753 20.8033 44.1169 23.0761 41.0281 26.4121L41.395 26.7518L41.0281 26.4121C38.4789 29.1656 37.0317 30.8151 36.2846 32.2391C35.5065 33.7222 35.4914 34.9498 35.6653 36.7723L36.163 36.7248L35.6653 36.7723C35.7819 37.9946 35.7741 38.8623 35.6776 39.3632C35.661 39.4495 35.6436 39.5148 35.6278 39.5636C32.8321 37.9641 31.5 35.9098 31.5 33.4718C31.5 32.3732 31.7657 31.4338 32.6141 30.2192C33.4817 28.9773 34.9458 27.466 37.3439 25.2435ZM64.5601 42.4799L64.5601 42.48L62.91 39.2641C63.2845 38.4428 63.5548 38.1488 63.7752 38.0578C63.9664 37.9789 64.2803 37.9941 64.9691 38.3627C66.0891 38.9618 66.4705 39.6981 66.4184 40.3355C66.3638 41.0028 65.8205 41.8056 64.5601 42.4799ZM52.0169 22.5859C52.0171 22.586 52.0165 22.5899 52.0147 22.5967C52.0158 22.5891 52.0167 22.5858 52.0169 22.5859ZM51.6063 22.8221C51.6042 22.8214 51.6031 22.821 51.6031 22.821C51.603 22.8209 51.6041 22.8212 51.6063 22.8221Z" fill="#00AF66" stroke="#00AF66"/>
</svg>
