<svg width="71" height="88" viewBox="0 0 71 88" fill="none" xmlns="http://www.w3.org/2000/svg">
<path fill-rule="evenodd" clip-rule="evenodd" d="M27 0.156781C27 0.453781 27.95 2.30878 29.112 4.27678C31.907 9.01478 30.701 11.8278 23.308 17.8118C12.14 26.8508 11.244 32.7108 20.177 38.2778L22.854 39.9458L21.792 36.4858C20.196 31.2868 21.408 28.4768 28.479 20.9808C36.375 12.6108 37.843 9.39978 35.299 6.05478C33.536 3.73478 27 -0.910219 27 0.156781ZM41.25 13.0648C44.008 17.2818 43.413 18.9368 37.004 24.8768C32.21 29.3198 31 31.0518 31 33.4718C31 36.1798 32.522 38.4048 35.518 40.0758C36.158 40.4328 36.398 39.1878 36.163 36.7248C35.821 33.1398 36.266 32.2918 41.395 26.7518C47.556 20.0978 48.293 17.3248 44.75 14.1348C40.697 10.4868 39.281 10.0538 41.25 13.0648ZM51.768 24.3798C52.177 26.5198 51.49 27.7338 48.136 30.7998C43.445 35.0878 43.078 36.6928 46.17 39.4068C48.287 41.2668 48.323 41.2668 47.647 39.4208C46.906 37.3958 48.292 34.7578 52.463 30.2568C55.489 26.9918 55.618 25.6808 53.132 23.4308C51.347 21.8158 51.286 21.8588 51.768 24.3798ZM62.455 39.0568C60.296 43.7958 39.989 46.7408 22.473 44.8548C10.459 43.5618 6.182 42.3648 3.778 39.6228C1.971 37.5618 0 37.9388 0 40.3448C0 42.4688 4.684 44.4838 14.007 46.3738C28.515 49.3128 56.394 47.4178 64.796 42.9208C67.463 41.4938 67.648 39.2288 65.205 37.9218C63.805 37.1728 63.2 37.4228 62.455 39.0568ZM0.650002 50.5538C2.174 56.6268 6.097 65.2088 9.54 69.9998C11.542 72.7878 14.013 77.0108 15.031 79.3838C17.35 84.7948 20.962 86.7578 29.997 87.5148C37.511 88.1448 45.407 86.6488 48.286 84.0488C49.269 83.1618 50.886 80.6078 51.88 78.3738C52.873 76.1398 55.557 71.6498 57.843 68.3958C60.129 65.1428 62 61.8798 62 61.1458C62 59.1688 63.778 59.5288 64.965 61.7458C66.506 64.6258 66.217 70.0568 64.383 72.6748C63.494 73.9448 61.357 75.8428 59.633 76.8938L56.5 78.8048L60.563 78.8078C63.707 78.8108 65.208 78.1898 67.201 76.0618C72.089 70.8408 71.989 65.1518 66.913 59.7188C64.225 56.8418 64.059 56.2588 64.981 52.9418C65.535 50.9448 65.991 49.0438 65.994 48.7168C65.997 48.3898 63.527 48.9568 60.505 49.9778C46.136 54.8278 14.173 54.3708 3.8 49.1668C0.0999992 47.3108 -0.137998 47.4158 0.650002 50.5538Z" fill="black" fill-opacity="0.351"/>
</svg>
